PathFileType	4	(X/Y/Z)	Patient4_TMGait_0pt4_02_right_09.trc.trc
DataRate	CameraRate	NumFrames	NumMarkers	Units	OrigDataRate	OrigDataStartFrame	OrigNumFrames
77.348066298343	77.348066298343	4	33	mm	77.348066298343	124	       141
Frame#	Time	Sacral			L.Shoulder			Chest			R.Shoulder			Neck			R.ASIS			L.ASIS			R.Thigh.Superior			R.Thigh.Lateral			R.Thigh.Inferior			R.Patella			L.Thigh.Superior			L.Thigh.Lateral			L.Thigh.Inferior			L.Patella			L.Shank.Superior			L.Shank.Lateral			L.Shank.Inferior			R.Shank.Superior			R.Shank.Lateral			R.Shank.Inferior			R.Heel			R.Midfoot.Superior			R.Midfoot.Lateral			R.Toe			L.Heel			L.Midfoot.Lateral			L.Midfoot.Superior			L.Toe			L.Elbow			L.Wrist			R.Elbow			R.Wrist			
		X1	Y1	Z1	X2	Y2	Z2	X3	Y3	Z3	X4	Y4	Z4	X5	Y5	Z5	X6	Y6	Z6	X7	Y7	Z7	X8	Y8	Z8	X9	Y9	Z9	X10	Y10	Z10	X11	Y11	Z11	X12	Y12	Z12	X13	Y13	Z13	X14	Y14	Z14	X15	Y15	Z15	X16	Y16	Z16	X17	Y17	Z17	X18	Y18	Z18	X19	Y19	Z19	X20	Y20	Z20	X21	Y21	Z21	X22	Y22	Z22	X23	Y23	Z23	X24	Y24	Z24	X25	Y25	Z25	X26	Y26	Z26	X27	Y27	Z27	X28	Y28	Z28	X29	Y29	Z29	X30	Y30	Z30	X31	Y31	Z31	X32	Y32	Z32	X33	Y33	Z33	

124	13.040214285714	894.621974153871	1004.047752634909	432.766498677903	1109.633859310564	1425.997225366244	261.010392059466	1187.453429177340	1358.285776056097	435.241261249235	1082.792456756240	1437.638353331982	594.850016267244	1076.199835092369	1491.961751159419	413.909864000669	1112.258258258554	942.538010351592	572.756890920180	1121.381415120133	955.816984084972	296.728250889944	1177.692516522037	754.126179321495	552.439806677407	1111.147243975894	636.445695174489	615.199581316311	1201.904347687658	593.670395959972	541.463129642652	1220.944532201685	510.025367010906	552.695125165585	1136.424560651118	731.750270033660	327.957033768016	1033.247120026995	629.934035875911	256.721519391409	1098.246565461706	540.160818127070	323.536567584401	1086.512544304324	469.926542884695	330.080508453267	1048.900755727955	403.194511226583	319.522357164908	943.420577280514	304.648925996186	264.950200291491	973.274296496110	185.444268610103	333.998254560007	1200.121090660550	420.822309901710	563.590761074857	1136.069810377281	312.517403213225	626.101105558541	1198.330508958407	221.481080149658	574.638996896307	1093.062598834590	43.541309674692	546.192192435806	1258.502598469538	106.279447528138	587.431942398112	1174.746560186640	39.960073213309	622.507138732032	1380.162415463176	62.358329065576	616.975840959455	828.610734888210	38.573163958764	371.486157588409	901.389440696918	35.053870546097	290.197732857433	986.036647137951	95.593327792803	317.243632942027	1114.014280440389	40.578304815177	285.461272035873	1142.725756553698	1084.224386720454	128.079893005142	1377.082498265809	988.282145225491	183.766021326299	963.490629801276	1112.807034655069	708.827508108216	1001.031033488148	857.077571526793	750.405638780455	
125	13.053142857143	896.142346908249	1002.429923842809	435.831621019043	1108.126814463076	1425.559716514563	264.434468061465	1186.716478137382	1358.344627693580	438.501662094704	1081.767004692205	1436.753406987825	598.431879581626	1074.400687589611	1491.202322828435	417.469379169247	1114.253041164963	941.549637667861	575.476424469756	1122.965021184392	955.257839087748	299.681664317901	1179.967530848673	752.743258114109	554.520806383025	1111.832487351680	634.846544250410	615.721986769507	1202.978482341217	592.350044695185	542.478850202449	1220.229554585652	507.347397363340	552.806301731073	1138.035092524732	730.566839207678	330.043965105605	1034.375669277716	628.755579473231	259.088670608023	1099.678218763717	538.707258457735	325.514300746760	1088.062363235380	467.704177778774	331.453392070151	1048.681417566452	401.498951063724	320.947642493816	941.275303570470	304.949048433809	266.310288439107	969.550841211873	184.873729834745	334.497075631298	1197.749178475809	417.655094387261	563.367283205429	1131.158189576347	310.521213119138	625.659011759209	1190.852284292140	218.193851108121	573.453210442487	1081.086713779676	42.909091793352	544.915810992098	1247.618779546061	102.850898694861	585.828569946511	1162.671234273885	38.471050408266	621.404825079006	1368.803601839377	56.990502648066	615.558074278312	823.343092378969	39.016064185413	371.467857992062	896.172239328832	35.189373940049	290.264881239162	981.064784218245	95.549605756602	317.255236621812	1108.846833309850	40.426633326851	285.376771626708	1140.937581598338	1083.273646814297	132.130247764489	1375.599637253773	987.511734418343	187.039857235102	965.993115932876	1110.163325668882	711.642063880875	1008.133878049213	854.638228667359	750.827268448819	
126	13.066071428571	897.609390577797	1000.827632508391	438.974483850036	1106.506418615635	1425.233211605554	267.987157613471	1185.948290410077	1358.468692106450	441.842504852717	1080.763546172509	1435.868106398289	602.156308169866	1072.594663770293	1490.507804961757	421.209466934063	1116.318584963191	940.705554711145	578.198796849175	1124.565805634541	954.826156892906	302.633008527594	1182.306307624188	751.490109272182	556.304931417538	1113.128280554744	633.642240312593	616.489978395502	1204.200904922235	591.222094142862	543.292179827092	1219.917762164801	505.013742504991	552.982218106165	1140.086894808147	729.533662526605	332.179894363386	1036.249383240744	627.465984735642	261.605085992945	1102.144659258858	537.284932050087	327.664415015553	1090.761112285448	465.349872494815	332.873177781710	1049.378567194297	399.734501064554	322.432504710057	939.829108500825	305.522425408237	267.784005360835	966.258783895721	184.509621846487	334.981655893276	1196.014163733808	414.963037447363	563.336895503653	1127.464971825923	308.895746880638	625.726525458353	1184.628323558093	215.450150186997	572.571007668601	1070.713531288779	42.438652045303	544.205455653795	1238.187215756390	100.252551987770	584.532454251956	1152.352406461921	37.432891316157	620.722555963154	1359.067314733313	52.868754169408	614.260824698432	818.160399945580	40.135660367165	371.400473001651	891.016877211177	35.682612561740	290.316810618762	976.323642256091	95.596691450358	317.205153128274	1103.676714409106	40.197936750486	285.278481725359	1138.644949363823	1082.356449794619	136.296269493991	1373.497417437199	986.176649876817	190.079290116695	968.951547499965	1107.441494442862	714.806026774684	1015.971783336829	852.264835432426	751.623436419970	
127	13.079000000000	898.971953114415	999.297467517585	442.181249280808	1104.803781463703	1425.045721139817	271.634790856248	1185.157615429459	1358.654230610223	445.227669826175	1079.817720561118	1435.017582555241	605.980106377014	1070.812734584893	1489.908807549013	425.088601302760	1118.379327581237	940.038396211008	580.926769497077	1126.130350507920	954.555068531454	305.548408166434	1184.585770218271	750.420953741185	557.835736006127	1114.932661954853	632.831457119566	617.561884690460	1205.491310790888	590.305125461232	543.991205734047	1219.951380340086	503.089537160638	553.332113234536	1142.570136442198	728.731521482487	334.411152495019	1038.989578500037	626.110636570247	264.236230848907	1105.797024808112	535.969006577319	329.960629420491	1094.750309316533	462.943266250404	334.302304395523	1051.154972106179	397.967521746586	323.931832166528	939.249323469454	306.473982559807	269.328222422967	963.537305233455	184.473697285660	335.418991848967	1194.871280671591	412.785217051097	563.557893700251	1124.932662032725	307.644072225824	626.280062026372	1179.678377375412	213.287583419187	572.027134148215	1062.063323752286	42.122598736747	543.959630040839	1230.283521314035	98.485004909822	583.597854316877	1143.851551286618	36.809229541508	620.417901627861	1351.000983571160	50.010086532385	613.217060825872	813.141881797236	42.196029942905	371.273927564484	885.972530351758	36.703089359359	290.342042263571	971.909504187352	95.799124025964	317.071542001717	1098.502391396471	39.879722667856	285.175602981023	1135.868649643883	1081.512768750695	140.561890914485	1370.763708129648	984.253053125320	192.871285330362	972.362095559424	1104.698122331856	718.255977830863	1024.488597697792	850.040364988803	752.794220394161	
